# xmcd CD database file
#
# Track frame offsets:
#	150
#	10671
#	23792
#	37133
#	52061
#	64910
#	74146
#	85153
#	96824
#	109399
#	121321
#	131259
#	143297
#	153358
#	161769
#	176520
#	189408
#
# Disc length: 2716 seconds
#
# Revision: 0
# Processed by: cddbd v1.5.2PL0 Copyright (c) Steve Scherf et al.
# Submitted via: CDex 1.70beta2
#
DISCID=e70a9a11
DTITLE=Various Artist - Country Roots - CD 4
DYEAR=2007
DGENRE=Country Classics
TTITLE0=Roy Acuff - I'm Building A Home
TTITLE1=The Carter Family - My Old Cottage Home
TTITLE2=Tex Williams - I Got Texas In My Soul
TTITLE3=The Carter Family - Jimmie Rodgers Visits The Carter Family
TTITLE4=Roy Acuff - Steel Guitar Blues
TTITLE5=Gene Autry - El Rancho Grande
TTITLE6=Hank Williams - No, No Joe
TTITLE7=Bob Wills - Roly Poly
TTITLE8=Red Foley - Will The Circle Be Unbroken
TTITLE9=Merle Travis - No Vacancy
TTITLE10=Hank Williams - I Can't Help It
TTITLE11=Gene Autry - Bear Cat Papa Blues
TTITLE12=Gene Autry - Red River Valley
TTITLE13=Kitty Wells And Red Foley - No One But You
TTITLE14=The Carter Family - Engine One-Forty Three
TTITLE15=Floyd Tillman - This Cold War With You
TTITLE16=Tex Ritter - Rye Whiskey
EXTD=YEAR: 2007
EXTT0=
EXTT1=
EXTT2=
EXTT3=
EXTT4=
EXTT5=
EXTT6=
EXTT7=
EXTT8=
EXTT9=
EXTT10=
EXTT11=
EXTT12=
EXTT13=
EXTT14=
EXTT15=
EXTT16=
PLAYORDER=
